<svg width="118" height="111" viewBox="0 0 118 111" fill="none" xmlns="http://www.w3.org/2000/svg">
<g filter="url(#filter0_d_11_265)">
<path d="M91.0001 48.4L75.6667 36.0667V27.6667C75.7484 25.9831 75.1591 24.3359 74.0281 23.0862C72.8971 21.8365 71.3167 21.0863 69.6334 21H31.6334C29.9619 21.1032 28.3985 21.8608 27.2816 23.1086C26.1648 24.3564 25.5846 25.9941 25.6667 27.6667V61C25.6358 62.3237 25.9997 63.6266 26.7121 64.7427C27.4245 65.8587 28.4531 66.7374 29.6667 67.2667C29.0528 68.7685 28.8136 70.3971 28.9696 72.012C29.1256 73.627 29.6722 75.1797 30.5623 76.5362C31.4523 77.8927 32.6591 79.0123 34.0784 79.7984C35.4977 80.5844 37.087 81.0133 38.709 81.0481C40.3311 81.0828 41.9373 80.7224 43.3889 79.9979C44.8406 79.2733 46.0942 78.2065 47.0416 76.8893C47.9889 75.5722 48.6015 74.0443 48.8266 72.4376C49.0516 70.8308 48.8824 69.1934 48.3334 67.6667H69.5334C68.9852 69.1771 68.809 70.7974 69.0198 72.3904C69.2306 73.9833 69.8222 75.502 70.7444 76.8179C71.6667 78.1337 72.8924 79.2079 74.3179 79.9496C75.7434 80.6912 77.3265 81.0784 78.9334 81.0784C80.5402 81.0784 82.1234 80.6912 83.5489 79.9496C84.9743 79.2079 86.2001 78.1337 87.1223 76.8179C88.0446 75.502 88.6361 73.9833 88.847 72.3904C89.0578 70.7974 88.8816 69.1771 88.3334 67.6667H89.0001C89.8841 67.6667 90.732 67.3155 91.3571 66.6904C91.9822 66.0652 92.3334 65.2174 92.3334 64.3333V51C92.3232 50.4938 92.1978 49.9966 91.9668 49.5461C91.7358 49.0956 91.4052 48.7037 91.0001 48.4ZM85.6667 52.6V61H75.6667V44.6L85.6667 52.6ZM42.3334 71C42.3334 71.6593 42.1379 72.3037 41.7716 72.8519C41.4053 73.4001 40.8848 73.8273 40.2757 74.0796C39.6666 74.3319 38.9964 74.3979 38.3498 74.2693C37.7031 74.1407 37.1092 73.8232 36.643 73.357C36.1769 72.8909 35.8594 72.2969 35.7308 71.6503C35.6022 71.0037 35.6682 70.3335 35.9205 69.7244C36.1727 69.1153 36.6 68.5947 37.1482 68.2284C37.6963 67.8622 38.3408 67.6667 39.0001 67.6667C39.8841 67.6667 40.732 68.0179 41.3571 68.643C41.9822 69.2681 42.3334 70.1159 42.3334 71ZM59.0001 61H32.3334V27.6667H69.0001V61H59.0001ZM82.3334 71C82.3334 71.6593 82.1379 72.3037 81.7716 72.8519C81.4054 73.4001 80.8848 73.8273 80.2757 74.0796C79.6666 74.3319 78.9964 74.3979 78.3498 74.2693C77.7031 74.1407 77.1092 73.8232 76.643 73.357C76.1769 72.8909 75.8594 72.2969 75.7308 71.6503C75.6022 71.0037 75.6682 70.3335 75.9205 69.7244C76.1727 69.1153 76.6 68.5947 77.1482 68.2284C77.6963 67.8622 78.3408 67.6667 79.0001 67.6667C79.8841 67.6667 80.732 68.0179 81.3571 68.643C81.9822 69.2681 82.3334 70.1159 82.3334 71Z" fill="#11DA49"/>
</g>
<defs>
<filter id="filter0_d_11_265" x="-6" y="-10" width="130" height="130" filterUnits="userSpaceOnUse" color-interpolation-filters="sRGB">
<feFlood flood-opacity="0" result="BackgroundImageFix"/>
<feColorMatrix in="SourceAlpha" type="matrix" values="0 0 0 0 0 0 0 0 0 0 0 0 0 0 0 0 0 0 127 0" result="hardAlpha"/>
<feOffset dy="4"/>
<feGaussianBlur stdDeviation="12.5"/>
<feComposite in2="hardAlpha" operator="out"/>
<feColorMatrix type="matrix" values="0 0 0 0 0 0 0 0 0 0 0 0 0 0 0 0 0 0 0.1 0"/>
<feBlend mode="normal" in2="BackgroundImageFix" result="effect1_dropShadow_11_265"/>
<feBlend mode="normal" in="SourceGraphic" in2="effect1_dropShadow_11_265" result="shape"/>
</filter>
</defs>
</svg>
