<svg width="130" height="130" viewBox="0 0 130 130" fill="none" xmlns="http://www.w3.org/2000/svg">
<g filter="url(#filter0_d_11_268)">
<path d="M65 21C42.9087 21 25 38.9087 25 61C25 83.0913 42.9087 101 65 101C87.0913 101 105 83.0913 105 61C105 38.9087 87.0913 21 65 21ZM65 29.6914C82.2913 29.6914 96.3037 43.7131 96.3037 61C96.3037 78.287 82.2913 92.3037 65 92.3037C47.7087 92.3037 33.6963 78.287 33.6963 61C33.6963 43.7131 47.7087 29.6914 65 29.6914ZM80.3271 42.0059L57.1435 65.1943L49.624 57.6748L42.2461 65.0479L49.7656 72.5674L57.1923 79.9941L64.5655 72.6162L87.7539 49.4326L80.3271 42.0059Z" fill="#11DA49"/>
</g>
<defs>
<filter id="filter0_d_11_268" x="0" y="0" width="130" height="130" filterUnits="userSpaceOnUse" color-interpolation-filters="sRGB">
<feFlood flood-opacity="0" result="BackgroundImageFix"/>
<feColorMatrix in="SourceAlpha" type="matrix" values="0 0 0 0 0 0 0 0 0 0 0 0 0 0 0 0 0 0 127 0" result="hardAlpha"/>
<feOffset dy="4"/>
<feGaussianBlur stdDeviation="12.5"/>
<feComposite in2="hardAlpha" operator="out"/>
<feColorMatrix type="matrix" values="0 0 0 0 0 0 0 0 0 0 0 0 0 0 0 0 0 0 0.1 0"/>
<feBlend mode="normal" in2="BackgroundImageFix" result="effect1_dropShadow_11_268"/>
<feBlend mode="normal" in="SourceGraphic" in2="effect1_dropShadow_11_268" result="shape"/>
</filter>
</defs>
</svg>
