<svg width="118" height="118" viewBox="0 0 118 118" fill="none" xmlns="http://www.w3.org/2000/svg">
<g filter="url(#filter0_d_11_244)">
<path d="M91.3667 30.7334L83.2667 22.6334C82.6421 22.0125 81.7973 21.6641 80.9167 21.6641C80.0361 21.6641 79.1912 22.0125 78.5667 22.6334L59.9667 41.2334C59.6577 41.5448 59.4133 41.9142 59.2474 42.3203C59.0816 42.7265 58.9975 43.1613 59 43.6V51.6667C59 52.5508 59.3512 53.3986 59.9763 54.0237C60.6014 54.6488 61.4493 55 62.3333 55H70.4C70.8387 55.0026 71.2736 54.9185 71.6797 54.7526C72.0858 54.5867 72.4552 54.3423 72.7667 54.0334L91.3667 35.4334C91.9875 34.8088 92.336 33.964 92.336 33.0834C92.336 32.2028 91.9875 31.3579 91.3667 30.7334ZM69 48.3334H65.6667V45L80.9333 29.7334L84.2667 33.0667L69 48.3334ZM82.3333 55C81.4493 55 80.6014 55.3512 79.9763 55.9763C79.3512 56.6015 79 57.4493 79 58.3334C79 64.5218 76.5417 70.4567 72.1658 74.8325C67.79 79.2084 61.8551 81.6667 55.6667 81.6667H37.0333L39.1667 79.5667C39.4791 79.2568 39.7271 78.8882 39.8963 78.482C40.0656 78.0758 40.1527 77.6401 40.1527 77.2C40.1527 76.76 40.0656 76.3243 39.8963 75.9181C39.7271 75.5119 39.4791 75.1432 39.1667 74.8334C35.9031 71.5701 33.6806 67.4124 32.7801 62.8859C31.8796 58.3595 32.3417 53.6677 34.1079 49.4039C35.8741 45.14 38.865 41.4958 42.7025 38.9319C46.54 36.368 51.0515 34.9997 55.6667 35C56.5507 35 57.3986 34.6488 58.0237 34.0237C58.6488 33.3986 59 32.5508 59 31.6667C59 30.7826 58.6488 29.9348 58.0237 29.3097C57.3986 28.6846 56.5507 28.3334 55.6667 28.3334C50.0249 28.3519 44.5027 29.961 39.734 32.9758C34.9653 35.9907 31.1433 40.2891 28.7069 45.3778C26.2705 50.4664 25.3184 56.1389 25.9598 61.7441C26.6013 67.3493 28.8103 72.6601 32.3334 77.0667L26.6334 82.6334C26.1708 83.1021 25.8575 83.6974 25.7329 84.344C25.6083 84.9906 25.6781 85.6597 25.9334 86.2667C26.1834 86.8754 26.6081 87.3965 27.1538 87.7643C27.6995 88.1321 28.3419 88.3301 29 88.3334H55.6667C59.6063 88.3334 63.5074 87.5574 67.1472 86.0498C70.787 84.5421 74.0941 82.3323 76.8799 79.5466C79.6656 76.7608 81.8754 73.4536 83.3831 69.8139C84.8907 66.1741 85.6667 62.273 85.6667 58.3334C85.6667 57.4493 85.3155 56.6015 84.6904 55.9763C84.0653 55.3512 83.2174 55 82.3333 55Z" fill="#11DA49"/>
</g>
<defs>
<filter id="filter0_d_11_244" x="-6" y="-6" width="130" height="130" filterUnits="userSpaceOnUse" color-interpolation-filters="sRGB">
<feFlood flood-opacity="0" result="BackgroundImageFix"/>
<feColorMatrix in="SourceAlpha" type="matrix" values="0 0 0 0 0 0 0 0 0 0 0 0 0 0 0 0 0 0 127 0" result="hardAlpha"/>
<feOffset dy="4"/>
<feGaussianBlur stdDeviation="12.5"/>
<feComposite in2="hardAlpha" operator="out"/>
<feColorMatrix type="matrix" values="0 0 0 0 0 0 0 0 0 0 0 0 0 0 0 0 0 0 0.1 0"/>
<feBlend mode="normal" in2="BackgroundImageFix" result="effect1_dropShadow_11_244"/>
<feBlend mode="normal" in="SourceGraphic" in2="effect1_dropShadow_11_244" result="shape"/>
</filter>
</defs>
</svg>
