<svg width="80" height="80" viewBox="0 0 80 80" fill="none" xmlns="http://www.w3.org/2000/svg">
<path d="M40 1.25C17.9085 1.25 0 18.5989 0 40C0 61.4011 17.9085 78.75 40 78.75C62.0914 78.75 80 61.4011 80 40C80 18.5989 62.0914 1.25 40 1.25ZM58.5406 27.6031C57.9387 33.7305 55.334 48.5997 54.0084 55.4625C53.4477 58.3662 52.3435 59.34 51.2748 59.4352C48.9523 59.6423 47.1881 57.9481 44.9382 56.5194C41.4177 54.2837 39.4289 52.892 36.0115 50.7105C32.0623 48.1894 34.6224 46.8042 36.8731 44.5386C37.4621 43.9459 47.6968 34.9277 47.8948 34.1095C47.9195 34.0072 47.9432 33.6252 47.7087 33.4245C47.4742 33.2239 47.1297 33.2919 46.8805 33.3464C46.5275 33.4241 40.9034 37.0253 30.0082 44.1498C28.412 45.2117 26.9661 45.7291 25.6705 45.702C24.2423 45.6722 21.495 44.9198 19.4526 44.2766C16.9476 43.4878 14.9566 43.0708 15.13 41.7311C15.2203 41.0332 16.2123 40.3196 18.1058 39.5905C29.7667 34.6688 37.5424 31.424 41.4329 29.8561C52.5413 25.38 54.8495 24.6025 56.354 24.5766C56.685 24.5712 57.4248 24.6506 57.904 25.0273C58.2228 25.2957 58.426 25.6702 58.4734 26.0767C58.5546 26.5815 58.5771 27.0935 58.5406 27.6031Z" fill="#11DA49"/>
</svg>
